<svg viewBox="10.337000000000002 20.09 224.613 44.63066666666667" fill="none" xmlns="http://www.w3.org/2000/svg" style="max-height: 500px" width="224.613" height="44.63066666666667">
<path fill="#2A4A4F" d="M67.1386 50.2401L70.0844 49.6323L66.9404 44.5633L67.1254 50.2401H67.1386ZM109.846 41.4916L112.792 40.8837L109.648 35.8148L109.833 41.4916H109.846ZM89.8992 39.9828L88.3404 40.2976L89.4632 43.9989L90.2558 43.8361C90.6918 43.7493 91.0881 43.6407 91.4183 43.5105C91.7618 43.3802 92.0656 43.2174 92.343 43.022C92.6204 42.8267 92.8053 42.577 92.911 42.2839C93.0167 41.9909 93.0167 41.6761 92.911 41.3179C92.7393 40.7643 92.3958 40.3627 91.8542 40.1131C91.3126 39.8634 90.6653 39.82 89.8992 39.9828ZM234.957 20.456L-14.5247 20.0869L1.88192 42.3708L-14.6172 64.6004L234.864 64.9694L218.457 42.6855L234.957 20.456Z"/>
<path fill="white" d="M19.8906 31.9268H26.7374C27.8291 31.9268 28.6716 32.176 29.2649 32.6626C29.8583 33.1492 30.2617 33.8494 30.4753 34.7395C30.677 35.6295 30.7838 36.7689 30.7838 38.1455C30.7838 39.4035 30.6177 40.3886 30.2854 41.1006C29.9532 41.8127 29.3836 42.2993 28.5767 42.5841C29.2531 42.7265 29.7396 43.0588 30.0362 43.5929C30.3329 44.127 30.4872 44.8509 30.4872 45.7647L30.4397 54.1909H26.0848V45.4799C26.0848 44.8628 25.9661 44.4593 25.7169 44.2931C25.4678 44.127 25.0287 44.032 24.3998 44.032V54.1909H19.8906V31.9268ZM25.4915 40.1749C26.1085 40.1749 26.4289 39.4985 26.4289 38.1574C26.4289 37.564 26.4052 37.1249 26.3459 36.8401C26.2984 36.5434 26.2035 36.3416 26.0611 36.2348C25.9187 36.128 25.7288 36.0687 25.4678 36.0687H24.4354V40.1868H25.5033L25.4915 40.1749Z"/>
<path fill="white" d="M32.2578 54.1997V31.9355H41.1693V36.2436H36.7907V40.5754H40.9914V44.7766H36.7907V49.8798H41.4541V54.2116H32.2578V54.1997Z"/>
<path fill="white" d="M42.3281 54.1997L44.4759 31.9355H52.0228L54.1469 54.1997H49.9225L49.614 50.5919H46.9204L46.6593 54.1997H42.3281ZM47.2526 47.0434H49.2699L48.285 35.7214H48.0832L47.2526 47.0434Z"/>
<path fill="white" d="M55.5 31.9277H61.6467C63.2368 31.9277 64.4234 32.3668 65.2184 33.2451C66.0135 34.1233 66.4169 35.4288 66.4407 37.1615L66.4881 47.5815C66.5 49.7771 66.1203 51.4267 65.349 52.5304C64.5777 53.6341 63.2842 54.1919 61.4924 54.1919H55.5119V31.9277H55.5ZM60.7567 50.2636C61.5636 50.2636 61.979 49.872 61.979 49.0768V37.5887C61.979 37.0903 61.9434 36.7105 61.8603 36.4613C61.7772 36.212 61.6348 36.0459 61.4331 35.951C61.2314 35.856 60.911 35.8204 60.4719 35.8204H59.9854V50.2636H60.7567Z"/>
<path fill="white" d="M70.9699 54.1997V46.8654L67.4219 31.9355H71.8242L73.0702 39.4717L74.3161 31.9355H78.7185L75.1705 46.8654V54.1997H70.9699Z"/>
<path fill="white" d="M79.6016 47.7429V44.8115H86.128V47.7429H79.6016Z"/>
<path fill="white" d="M89.8102 54.1997V36.208H87.1641V31.9355H96.9062V36.208H94.2601V54.1997H89.7984H89.8102Z"/>
<path fill="white" d="M99.369 52.7506C98.4315 51.6588 97.9688 50.1159 97.9688 48.1221V37.5241C97.9688 35.6015 98.4315 34.1536 99.369 33.1805C100.306 32.2073 101.671 31.7207 103.463 31.7207C105.255 31.7207 106.619 32.2073 107.557 33.1805C108.494 34.1536 108.957 35.6015 108.957 37.5241V48.1221C108.957 50.1278 108.494 51.6706 107.557 52.7625C106.619 53.8543 105.255 54.4003 103.463 54.4003C101.671 54.4003 100.306 53.8543 99.369 52.7506ZM104.27 49.7836C104.412 49.4395 104.471 48.9529 104.471 48.3358V37.4529C104.471 36.9663 104.412 36.5747 104.282 36.278C104.151 35.9813 103.89 35.827 103.487 35.827C102.739 35.827 102.371 36.3848 102.371 37.5122V48.3714C102.371 49.0122 102.454 49.4988 102.608 49.8193C102.763 50.1516 103.047 50.3058 103.463 50.3058C103.878 50.3058 104.127 50.1397 104.27 49.7836Z"/>
<path fill="white" d="M110.516 47.7429V44.8115H117.042V47.7429H110.516Z"/>
<path fill="white" d="M118.805 54.1997V31.9355H125.592L127.455 45.5124L129.318 31.9355H136.165V54.1997H132.095V38.1543L129.532 54.1997H125.545L122.827 38.1543V54.1997H118.817H118.805Z"/>
<path fill="white" d="M139.361 52.7506C138.424 51.6588 137.961 50.1159 137.961 48.1221V37.5241C137.961 35.6015 138.424 34.1536 139.361 33.1805C140.299 32.2073 141.663 31.7207 143.455 31.7207C145.247 31.7207 146.611 32.2073 147.549 33.1805C148.486 34.1536 148.949 35.6015 148.949 37.5241V48.1221C148.949 50.1278 148.486 51.6706 147.549 52.7625C146.611 53.8543 145.247 54.4003 143.455 54.4003C141.663 54.4003 140.299 53.8543 139.361 52.7506ZM144.262 49.7836C144.404 49.4395 144.464 48.9529 144.464 48.3358V37.4529C144.464 36.9663 144.404 36.5747 144.274 36.278C144.143 35.9813 143.882 35.827 143.479 35.827C142.731 35.827 142.363 36.3848 142.363 37.5122V48.3714C142.363 49.0122 142.446 49.4988 142.601 49.8193C142.755 50.1516 143.04 50.3058 143.455 50.3058C143.87 50.3058 144.12 50.1397 144.262 49.7836Z"/>
<path fill="white" d="M152.796 54.199L150.055 31.9111H154.303L155.94 47.0783L157.388 31.9111H161.636L158.895 54.199H152.808H152.796Z"/>
<path fill="white" d="M162.891 54.1997V31.9355H171.802V36.2436H167.424V40.5754H171.624V44.7766H167.424V49.8798H172.087V54.2116H162.891V54.1997Z"/>
<path fill="white" d="M173.328 47.7429V44.8115H179.855V47.7429H173.328Z"/>
<path fill="white" d="M181.422 54.1997V31.9355H185.729V54.1997H181.422Z"/>
<path fill="white" d="M187.516 54.1997V31.9355H192.108L194.161 42.5929V31.9355H198.468V54.1997H194.113L191.882 43.0558V54.1997H187.528H187.516Z"/>
</svg>